<svg width="175" height="184" viewBox="0 0 175 184" fill="none" xmlns="http://www.w3.org/2000/svg">
<mask id="mask0_201_82" style="mask-type:alpha" maskUnits="userSpaceOnUse" x="0" y="0" width="175" height="184">
<ellipse cx="87.0422" cy="92" rx="87.0422" ry="92" transform="matrix(-1 0 0 1 174.3 0)" fill="#78AEB1"/>
</mask>
<g mask="url(#mask0_201_82)">
<ellipse cx="87.0422" cy="92" rx="87.0422" ry="92" transform="matrix(-1 0 0 1 174.3 0)" fill="#78AEB1"/>
<path fill-rule="evenodd" clip-rule="evenodd" d="M119.003 67.1059C119.003 68.9413 118.909 70.7478 118.729 72.5177C118.729 72.5177 119.856 70.4749 121.051 69.8118C121.168 69.7465 121.277 69.6793 121.381 69.615C121.771 69.373 122.096 69.172 122.587 69.2706C123.398 69.4335 123.291 70.2813 123.175 71.2095L123.175 71.2096C123.119 71.649 123.062 72.1064 123.099 72.5177C123.099 72.5177 123.086 77.1751 122.587 80.0941C122.181 82.4653 121.89 83.8065 121.051 86.0471C120.392 87.8047 119.003 90.3765 119.003 90.3765L118.672 90.3705C117.671 99.2853 114.454 107.241 109.787 113.221V126.635L112.859 132.047L106.203 156.4H68.8256L63.9191 126.635V107.153C61.2125 101.957 59.4083 95.8718 58.8066 89.295L58.7595 89.2941C58.7595 89.2941 57.654 89.5935 57.049 89.2941C56.4527 88.9991 56.3861 88.4321 56.3122 87.8045C56.2653 87.4055 56.2155 86.982 56.025 86.5882C55.6475 85.808 55.2065 85.2833 54.7703 84.7641C54.3016 84.2063 53.8383 83.655 53.4649 82.8C52.653 80.9407 52.593 79.5505 52.5161 77.7658C52.4964 77.3097 52.4756 76.8279 52.4409 76.3059C52.4226 76.0304 52.4037 75.7719 52.3858 75.5254C52.2802 74.0744 52.205 73.042 52.4409 71.4353C52.5057 70.9937 52.5036 70.5325 52.5015 70.0877C52.4965 69.0014 52.4919 68.0131 53.4649 67.6471C53.9706 67.4568 54.3276 67.5229 54.821 67.6142L54.8219 67.6144C54.8796 67.6251 54.9391 67.6361 55.0009 67.6471C57.0011 68.0025 58.7595 71.4353 58.7595 71.4353C58.6442 70.0131 58.585 68.5687 58.585 67.1059C58.585 44.9885 72.1099 27.0588 88.7938 27.0588C105.478 27.0588 119.003 44.9885 119.003 67.1059Z" fill="#EACBAF"/>
<path d="M103.131 35.7177C98.1089 33.6228 94.5521 37.0664 89.3063 35.7177C86.1675 34.9107 84.8529 32.6302 81.6261 32.4706C76.9804 32.2409 74.4615 34.7543 70.8738 37.8824C68.2472 40.1726 66.4119 41.5378 65.2417 44.9177C64.0735 48.2917 66.4099 50.7437 65.2417 54.1177C64.0715 57.4975 60.6657 57.7315 59.6095 61.153C58.7413 63.9658 59.6095 68.7295 59.6095 68.7295V78.4706C59.6095 78.4706 56.3893 71.7063 55.0014 67.1059C53.5123 62.1697 52.8529 59.2805 52.4414 54.1177C52.156 50.5375 51.5629 48.3885 52.4414 44.9177C53.4877 40.7837 54.8448 38.2997 58.0735 35.7177C61.099 33.2982 63.51 32.8159 67.2897 32.4706H70.8738L69.3378 30.8471C69.3378 30.8471 68.6997 27.1189 69.3378 24.8942C70.446 21.0301 76.506 17.8589 76.506 17.8589C76.506 17.8589 84.1657 14.5605 89.3063 14.6118C94.2526 14.6611 101.595 17.8589 101.595 17.8589C101.595 17.8589 110.267 23.4229 114.907 28.1412C119.003 32.3061 121.972 34.4866 124.123 40.0471C126.104 45.1669 125.906 48.5925 125.659 54.1177C125.398 59.9566 123.099 69.8118 123.099 69.8118C123.099 69.8118 122.075 68.1883 120.539 70.353C119.003 72.5177 117.979 80.0942 117.979 80.0942V72.5177C117.979 72.5177 118.806 66.8026 117.979 63.3177C117.02 59.2745 113.818 58.1609 112.859 54.1177C112.032 50.6327 113.965 48.3151 112.859 44.9177C111.201 39.8225 107.873 37.6958 103.131 35.7177Z" fill="black"/>
<path d="M78.5537 144.494C80.7628 145.957 82.2897 146.391 84.1858 148.282C86.6062 150.696 88.7939 155.859 88.7939 155.859C88.7939 155.859 91.1609 152.443 92.8901 150.447C97.0233 145.676 101.58 145.398 105.178 140.165C107.65 136.57 108.762 129.882 108.762 129.882L109.786 118.518H110.298L112.859 125.012L159.452 150.447C159.452 150.447 164.272 151.643 166.62 153.694C168.041 154.935 169.692 157.482 169.692 157.482L181.98 185.082H-6.44043C-6.44043 185.082 -4.64752 178.788 -3.36835 174.8C-1.03146 167.514 -1.39995 162.285 3.28781 156.4C6.50738 152.358 9.33693 151.162 13.5281 148.282C21.7015 142.667 36.0566 136.918 36.0566 136.918L59.0972 124.471L63.7053 118.518C63.7053 118.518 63.6619 122.316 63.7053 124.471C63.7686 127.612 63.9593 128.671 65.2414 131.506C66.5578 134.416 67.2603 136.178 69.3375 138.541C72.2081 141.808 74.9795 142.127 78.5537 144.494Z" fill="#12373F"/>
</g>
</svg>
