<svg width="189" height="184" viewBox="0 0 189 184" fill="none" xmlns="http://www.w3.org/2000/svg">
<ellipse cx="94.3563" cy="92" rx="94.3563" ry="92" fill="#F8A0A0"/>
<mask id="mask0_10_920" style="mask-type:alpha" maskUnits="userSpaceOnUse" x="0" y="0" width="190" height="184">
<ellipse cx="94.6439" cy="92" rx="94.3563" ry="92" fill="#D9D9D9"/>
</mask>
<g mask="url(#mask0_10_920)">
<path d="M80.243 97.2639L61.9267 60.4639L58.0113 58.9883L53.571 61.153C53.571 61.153 52.4098 73.9589 53.016 85.358C53.2863 90.441 53.0462 86.9816 53.6012 97.2639C53.7286 99.6235 53.8085 103.68 53.0462 105.923C51.8533 109.432 49.989 110.863 48.0508 114.04C41.3991 124.945 31.3997 142.182 31.3997 142.182C31.3997 142.182 25.726 151.726 23.6292 158.417C22.4613 162.144 21.6479 164.268 21.409 168.158C21.1616 172.189 22.5191 178.44 22.5191 178.44L23.8815 186.017H44.1656L43.6105 151.382L50.271 136.229L89.1235 122.699V103.758L80.243 97.2639Z" fill="black"/>
<path d="M125.756 58.2992L136.272 57.0845C136.272 57.0845 135.641 65.1474 135.192 70.2051C134.758 75.0888 133.802 77.7575 133.527 82.6522C133.325 86.2396 133.144 88.2787 133.527 91.8522C133.87 95.0676 135.192 99.9698 135.192 99.9698C135.192 99.9698 136.553 105.365 137.967 108.629C140.704 114.946 144.125 117.49 147.957 123.24C151.037 127.862 153.294 130.469 156.283 135.146C158.033 137.884 157.948 137.852 160.723 141.64C162.317 143.816 163.498 147.052 163.498 147.052C163.498 147.052 164.054 149.809 164.054 151.923C164.054 154.036 164.054 155.711 162.388 162.205C160.723 168.699 160.467 168.394 160.168 172.487C159.891 176.288 160.006 178.483 160.723 182.229C161.177 184.597 162.388 188.182 162.388 188.182H149.068L150.178 155.711L139.632 140.558L116.875 127.57L105.775 118.37V102.676L119.096 81.0286L125.756 58.2992Z" fill="black"/>
<path d="M126.281 62.6287C125.868 67.6574 125.149 72.6113 123.98 77.2404C122.005 85.0656 118.746 91.9624 113.515 96.7228C111.729 98.348 110.115 99.8756 108.52 101.247C104.803 104.442 101.191 106.789 95.7537 107.546C93.1703 106.875 90.7892 105.994 88.5382 104.922C83.5348 102.538 79.174 99.205 74.6623 95.0993C70.2582 91.0915 67.4073 86.1751 65.4522 80.3501C63.7113 75.1633 62.6807 69.2562 61.8964 62.6287C61.8964 61.9029 61.9091 61.1812 61.9341 60.464C62.753 36.9609 76.8359 18.2522 94.0886 18.2522C111.076 18.2522 124.99 36.3892 126.196 59.3816C126.252 60.4539 126.281 61.5367 126.281 62.6287Z" fill="#DBAE7F"/>
<path d="M61.8964 62.6287C61.8964 61.9029 61.9091 61.1812 61.9341 60.464C61.9341 60.464 60.2998 59.8561 59.6763 60.464C57.4561 62.6287 57.6 63.9516 57.4562 64.7934C57.2257 66.1418 57.0577 69.65 57.4562 72.3698C57.8057 74.7553 58.3285 76.0038 59.1213 78.3228C59.6763 79.9463 61.3414 81.0287 61.3414 81.0287C61.3414 81.0287 63.0065 82.111 64.6716 81.5698C65.2179 81.3923 65.4522 80.3501 65.4522 80.3501C63.7113 75.1633 62.6807 69.2562 61.8964 62.6287Z" fill="#DBAE7F"/>
<path d="M126.196 59.3816C126.252 60.4539 126.281 61.5367 126.281 62.6287C125.868 67.6574 125.149 72.6113 123.98 77.2404C123.98 77.2404 125.206 78.1993 126.281 78.3228C127.564 78.4702 129.611 77.2404 129.611 77.2404C129.611 77.2404 132.621 74.7675 133.496 72.3698C134.444 69.7737 133.71 66.7169 132.941 64.2522L132.917 64.1734C131.966 61.1262 131.252 58.8358 128.501 58.2993C127.521 58.1082 126.196 59.3816 126.196 59.3816Z" fill="#DBAE7F"/>
<path d="M95.7537 107.546C93.1703 106.875 90.7892 105.994 88.5382 104.922C88.5382 104.922 90.0799 111.122 88.5382 114.582C88.0345 115.712 87.5932 116.275 86.8731 117.287C82.0627 124.052 76.8824 125.405 68.0018 128.111C59.9332 130.57 53.8914 129.757 48.0205 135.688C45.973 137.756 44.8779 139.059 43.5802 141.64C41.7277 145.325 41.5069 147.822 41.3601 151.923C41.2306 155.538 42.4701 161.123 42.4701 161.123L43.5802 172.488L44.6903 186.017L150.147 188.182C150.147 188.182 152.426 179.353 152.922 173.57C153.338 168.726 153.554 165.988 153.478 161.123C153.421 157.524 152.922 150.447 152.922 150.447C152.922 150.447 152.415 148.081 151.812 146.659C151.012 144.771 150.245 143.66 149.037 142.182C147.388 140.164 143.487 138.393 143.487 138.393L127.391 130.276C127.391 130.276 116.693 125.467 111.295 120.535C110.4 119.717 110.203 119.426 109.63 118.37C109.013 117.234 108.695 116.397 108.52 115.123C107.779 109.752 108.52 101.247 108.52 101.247C104.803 104.442 101.191 106.789 95.7537 107.546Z" fill="#DBAE7F"/>
<path d="M113.515 86.047C113.515 86.047 112.532 82.5657 111.295 80.6353C108.837 76.7996 105.465 76.4452 101.859 73.6C98.9897 71.3359 97.0124 70.4072 94.6436 67.647C93.1389 65.8939 92.5386 64.7255 91.3133 62.7764C89.3877 59.7133 88.0967 58.0477 86.873 54.6588C85.8424 51.8046 85.2079 47.0823 85.2079 47.0823V29.2235C85.2079 29.2235 85.763 29.7647 85.2079 30.847C84.6529 31.9294 84.6529 32.4706 83.5428 34.6353C82.2243 37.2064 81.339 38.7682 79.6575 41.1294C77.1544 44.6445 72.9971 49.7882 72.9971 49.7882L68.5568 54.6588L62.1707 60.7596C62.1707 60.7596 61.0606 60.2184 60.5056 60.2184C59.9505 60.2184 53.5708 61.1529 53.5708 61.1529C53.5708 61.1529 53.4942 50.1652 54.1259 44.9176C54.6165 40.8421 56.346 34.6353 56.346 34.6353C56.346 34.6353 58.6689 26.7759 61.8964 22.8773C64.305 19.9678 66.2247 18.4245 69.6669 16.7764C73.0256 15.1684 76.8824 14.6117 79.1025 14.6117C81.3227 14.6117 87.9831 15.1529 87.9831 15.1529C87.9831 15.1529 90.3445 12.3334 92.4234 11.3647C95.7481 9.81546 98.213 9.62992 101.859 10.15C105.505 10.67 109.223 11.846 113.515 13.9382C117.955 16.1029 120.662 19.2833 122.95 21.5147C124.616 23.1382 129.611 32.3382 129.611 32.3382C129.611 32.3382 132.625 39.8866 134.051 44.9176C135.4 49.673 136.271 57.2323 136.271 57.2323L126.555 58.5949L125.726 69.2706C125.726 69.2706 124.552 65.8936 123.505 63.8588C122.239 61.3955 121.404 60.0429 119.62 57.9059C117.393 55.2377 112.96 51.9529 112.96 51.9529C112.96 51.9529 108.157 47.9113 104.634 46C102.346 44.7584 98.5288 43.2941 98.5288 43.2941C98.5288 43.2941 96.4367 42.0596 95.1986 41.1294C92.161 38.8471 88.5381 34.0941 88.5381 34.0941C88.5381 34.0941 88.2665 43.0529 89.0932 48.7059C89.2793 49.9785 89.0932 48.7059 89.6482 51.9529C90.0563 54.3402 90.2364 54.9177 91.3133 56.8235C92.624 59.1429 94.129 60.6544 95.7536 62.7764C97.4039 64.932 100.749 67.647 100.749 67.647C100.749 67.647 103.793 70.6155 105.744 72.5176C107.262 73.997 109.63 76.3059 109.63 76.3059C109.63 76.3059 111.61 78.0957 112.405 79.5529C113.643 81.8227 113.515 86.047 113.515 86.047Z" fill="black"/>
<path d="M80.7678 139.624C77.0817 135.212 75.2174 126.094 75.2174 126.094L56.3462 130.424C56.3462 130.424 59.682 133.497 61.3415 135.835C63.7713 139.258 65.135 141.582 66.3369 145.577C67.5708 149.678 67.8111 152.141 67.4469 156.4C67.1279 160.132 65.8547 162.037 64.6717 165.6C63.109 170.307 60.2314 177.506 60.2314 177.506L64.6717 184.541L110.185 189.953L136.827 174.8C136.827 174.8 133.496 169.327 131.831 165.6C130.271 162.107 129.195 160.15 128.501 156.4C127.731 152.24 127.85 149.755 128.501 145.577C129.294 140.488 132.941 133.129 132.941 133.129L119.065 125.553C119.065 125.553 116.845 134.753 114.07 139.624C111.761 143.675 109.625 146.074 105.189 147.741C100.942 149.338 97.3897 149.919 92.9786 148.824C87.2108 147.391 84.527 144.123 80.7678 139.624Z" fill="#785757"/>
</g>
</svg>
