<svg width="1124" height="82" viewBox="0 0 1124 82" fill="none" xmlns="http://www.w3.org/2000/svg">
<path d="M10.2749 20.6473C10.2749 9.79342 19.0737 0.994629 29.9275 0.994629V0.994629V29.4392H10.2749V20.6473Z" fill="#4B6786" stroke="#4B6786" stroke-width="0.805851"/>
<rect x="10.2749" y="29.4393" width="19.6526" height="23.1214" fill="#4B6786" stroke="#4B6786" stroke-width="0.805851"/>
<path fill-rule="evenodd" clip-rule="evenodd" d="M10.6314 65.0993C10.3973 63.8864 10.2747 62.6339 10.2747 61.3526V52.5607H29.9274V81.0053C25.1683 81.0053 20.8044 79.3137 17.404 76.499C14.0116 78.759 8.57198 80.9072 1.99998 79.7123C3.81009 78.9366 10.7919 74.282 10.5334 64.9729C10.5647 65.016 10.5974 65.0581 10.6314 65.0993Z" fill="#4B6786"/>
<path d="M10.6314 65.0993L10.3208 65.3559L11.0271 65.0229L10.6314 65.0993ZM10.2747 52.5607V52.1578H9.8718V52.5607H10.2747ZM29.9274 52.5607H30.3303V52.1578H29.9274V52.5607ZM29.9274 81.0053V81.4082H30.3303V81.0053H29.9274ZM17.404 76.499L17.6609 76.1886L17.4301 75.9975L17.1806 76.1637L17.404 76.499ZM1.99998 79.7123L1.84126 79.342L0.610864 79.8693L1.9279 80.1088L1.99998 79.7123ZM10.5334 64.9729L10.8592 64.7359L10.0945 63.6844L10.1306 64.9841L10.5334 64.9729ZM9.8718 61.3526C9.8718 62.6596 9.99688 63.9378 10.2358 65.1757L11.0271 65.0229C10.7978 63.8351 10.6777 62.6081 10.6777 61.3526H9.8718ZM9.8718 52.5607V61.3526H10.6777V52.5607H9.8718ZM29.9274 52.1578H10.2747V52.9636H29.9274V52.1578ZM30.3303 81.0053V52.5607H29.5244V81.0053H30.3303ZM17.1471 76.8094C20.6171 79.6817 25.0711 81.4082 29.9274 81.4082V80.6024C25.2656 80.6024 20.9917 78.9457 17.6609 76.1886L17.1471 76.8094ZM1.9279 80.1088C8.62825 81.327 14.1726 79.1359 17.6274 76.8344L17.1806 76.1637C13.8507 78.3821 8.51572 80.4875 2.07205 79.3159L1.9279 80.1088ZM10.1306 64.9841C10.2568 69.5274 8.61841 72.9276 6.7278 75.2909C4.82927 77.6641 2.68459 78.9806 1.84126 79.342L2.1587 80.0827C3.12548 79.6683 5.37677 78.2697 7.35706 75.7943C9.34526 73.3091 11.0685 69.7275 10.9361 64.9617L10.1306 64.9841ZM10.9421 64.8427C10.9132 64.8078 10.8856 64.7722 10.8592 64.7359L10.2075 65.2099C10.2438 65.2598 10.2816 65.3085 10.3208 65.3559L10.9421 64.8427Z" fill="#4B6786"/>
<rect x="29.9272" y="0.994629" width="1073.42" height="80.0106" fill="#4B6786"/>
<rect x="29.9272" y="0.994629" width="1073.42" height="80.0106" stroke="#4B6786" stroke-width="0.805851"/>
<path d="M48.8872 28.02C50.5672 29.2733 51.4072 30.86 51.4072 32.78C51.4072 34.7 50.5672 36.2733 48.8872 37.5C47.2339 38.7267 45.1006 39.34 42.4872 39.34C39.8739 39.34 37.7139 38.7267 36.0072 37.5C34.3006 36.2467 33.4472 34.6467 33.4472 32.7C33.4472 30.8067 34.3006 29.2467 36.0072 28.02C37.7406 26.7667 39.9006 26.14 42.4872 26.14C45.0739 26.14 47.2072 26.7667 48.8872 28.02ZM49.7272 48.98V45.62H56.5272V25.02H61.2072V52.58H56.5272V48.98H49.7272ZM61.7672 59.7H35.6072V49.18H40.2872V55.98H61.7672V59.7ZM46.1272 50.86H41.4872V44.5C38.1806 44.6067 34.8872 44.66 31.6072 44.66C31.2872 42.74 31.0739 41.5133 30.9672 40.98C40.4872 40.98 48.0606 40.62 53.6872 39.9L53.9672 43.34C51.9939 43.66 49.3806 43.94 46.1272 44.18V50.86ZM45.5672 34.94C46.3672 34.3267 46.7672 33.6067 46.7672 32.78C46.7672 31.9533 46.3672 31.22 45.5672 30.58C44.7672 29.94 43.7406 29.62 42.4872 29.62C41.1806 29.62 40.1272 29.94 39.3272 30.58C38.5539 31.22 38.1672 31.9533 38.1672 32.78C38.1672 33.6067 38.5539 34.3267 39.3272 34.94C40.1272 35.5267 41.1806 35.82 42.4872 35.82C43.7672 35.82 44.7939 35.5267 45.5672 34.94ZM86.0566 37.22H65.3766V33.5H86.0566V37.22ZM70.3766 31.02V27.34H81.3766V31.02H70.3766ZM93.4166 25.02V39.46H98.3766V43.34H93.4166V60.66H88.6966V25.02H93.4166ZM67.1366 46.14C67.1366 43.9267 67.9366 42.1 69.5366 40.66C71.1366 39.1933 73.2033 38.46 75.7366 38.46C78.2966 38.46 80.3633 39.18 81.9366 40.62C83.5366 42.06 84.3366 43.9 84.3366 46.14C84.3366 48.3533 83.5366 50.1933 81.9366 51.66C80.3366 53.1 78.27 53.82 75.7366 53.82C73.1766 53.82 71.0966 53.1133 69.4966 51.7C67.9233 50.26 67.1366 48.4067 67.1366 46.14ZM71.6966 46.14C71.6966 47.2867 72.07 48.22 72.8166 48.94C73.59 49.66 74.5633 50.02 75.7366 50.02C77.0166 50.02 78.0033 49.6733 78.6966 48.98C79.4166 48.26 79.7766 47.3133 79.7766 46.14C79.7766 44.9667 79.39 44.02 78.6166 43.3C77.87 42.58 76.91 42.22 75.7366 42.22C74.5633 42.22 73.59 42.58 72.8166 43.3C72.07 44.02 71.6966 44.9667 71.6966 46.14ZM122.226 48.54L119.626 52.18C117.973 51.3533 116.253 49.9667 114.466 48.02C112.706 46.0733 111.559 44.2733 111.026 42.62C110.599 44.4867 109.559 46.4467 107.906 48.5C106.279 50.5267 104.453 52.0333 102.426 53.02L99.626 49.54C105.573 46.3667 108.546 40.9667 108.546 33.34V32.38H101.426V28.66H120.346V32.38H113.466V33.3C113.466 40.4467 116.386 45.5267 122.226 48.54ZM129.426 60.66H124.746V25.02H129.426V60.66ZM159.183 59.02C156.037 59.82 152.357 60.22 148.143 60.22V46.58H152.623V56.5C154.197 56.4733 156.17 56.1667 158.543 55.58L159.183 59.02ZM170.783 46.94H162.543V43.78H170.783V46.94ZM175.583 51.34H157.863V48.1H175.583V51.34ZM177.623 36.22H172.543V42.42H167.783V25.02H172.543V32.38H177.623V36.22ZM144.983 35.14C144.983 32.74 145.863 30.7133 147.623 29.06C149.383 27.4067 151.57 26.58 154.183 26.58C156.823 26.58 159.023 27.3933 160.783 29.02C162.543 30.6467 163.423 32.6867 163.423 35.14C163.423 37.5133 162.543 39.4733 160.783 41.02C159.023 42.5667 156.823 43.34 154.183 43.34C151.517 43.34 149.317 42.58 147.583 41.06C145.85 39.54 144.983 37.5667 144.983 35.14ZM149.623 35.1C149.623 36.3533 150.037 37.3933 150.863 38.22C151.69 39.02 152.797 39.42 154.183 39.42C155.57 39.42 156.677 39.02 157.503 38.22C158.357 37.3933 158.783 36.3533 158.783 35.1C158.783 33.82 158.357 32.7267 157.503 31.82C156.65 30.9133 155.543 30.46 154.183 30.46C152.823 30.46 151.717 30.9133 150.863 31.82C150.037 32.7267 149.623 33.82 149.623 35.1ZM173.103 56.54C173.103 57.98 172.477 59.1 171.223 59.9C169.97 60.7 168.41 61.1 166.543 61.1C164.677 61.1 163.117 60.7 161.863 59.9C160.637 59.1 160.023 57.98 160.023 56.54C160.023 55.1267 160.637 54.02 161.863 53.22C163.117 52.42 164.677 52.02 166.543 52.02C168.41 52.02 169.97 52.42 171.223 53.22C172.477 54.02 173.103 55.1267 173.103 56.54ZM168.943 56.54C168.943 56.06 168.717 55.7 168.263 55.46C167.81 55.22 167.237 55.1 166.543 55.1C164.97 55.1 164.183 55.58 164.183 56.54C164.183 57.5 164.97 57.98 166.543 57.98C168.143 57.98 168.943 57.5 168.943 56.54ZM211.273 46.34H179.073V42.58H211.273V46.34ZM207.313 38.58H183.393V26.18H188.073V34.86H207.313V38.58ZM207.553 59.7H183.193V49.18H187.833V55.98H207.553V59.7ZM246.07 48.54L243.47 52.18C241.816 51.3533 240.096 49.9667 238.31 48.02C236.55 46.0733 235.403 44.2733 234.87 42.62C234.443 44.4867 233.403 46.4467 231.75 48.5C230.123 50.5267 228.296 52.0333 226.27 53.02L223.47 49.54C229.416 46.3667 232.39 40.9667 232.39 33.34V32.38H225.27V28.66H244.19V32.38H237.31V33.3C237.31 40.4467 240.23 45.5267 246.07 48.54ZM253.27 60.66H248.59V25.02H253.27V60.66ZM290.399 56.18H258.199V52.5H266.079V45.62H270.759V52.5H277.719V45.62H282.359V52.5H290.399V56.18ZM287.279 43.94H261.159V40.22H266.079L265.399 33.5L270.079 33.02L270.479 40.22H278.239L279.199 33.1L283.719 33.78L282.599 40.22H287.279V43.94ZM287.359 31.38H261.079V27.66H287.359V31.38ZM321.049 37.02H296.889V25.62H320.769V29.34H301.569V33.3H321.049V37.02ZM324.809 42.98H292.609V39.22H324.809V42.98ZM321.849 60.5H296.729V51.22H315.889V49.06H296.489V45.38H320.569V54.58H301.369V56.66H321.849V60.5ZM355.058 25.02V39.18H360.138V43.06H355.058V60.66H350.538V25.02H355.058ZM337.778 28.74C337.805 34.2867 337.151 38.9267 335.818 42.66C334.485 46.3667 332.365 49.7667 329.458 52.86L326.018 50.22C328.445 47.9533 330.285 45.2733 331.538 42.18C332.791 39.0867 333.405 35.9 333.378 32.62H328.218V28.74H337.778ZM347.658 28.74C347.685 34.9533 347.125 39.9667 345.978 43.78C344.831 47.5933 342.711 51.34 339.618 55.02L335.978 52.42C340.831 47.3267 343.258 40.7267 343.258 32.62H339.378V28.74H347.658ZM383.707 48.54L381.107 52.18C379.454 51.3533 377.734 49.9667 375.947 48.02C374.187 46.0733 373.041 44.2733 372.507 42.62C372.081 44.4867 371.041 46.4467 369.387 48.5C367.761 50.5267 365.934 52.0333 363.907 53.02L361.107 49.54C367.054 46.3667 370.027 40.9667 370.027 33.34V32.38H362.907V28.66H381.827V32.38H374.947V33.3C374.947 40.4467 377.867 45.5267 383.707 48.54ZM390.907 60.66H386.227V25.02H390.907V60.66ZM426.544 35.06H405.864V31.42H426.544V35.06ZM424.824 42.62C424.824 44.5133 424.024 46.0733 422.424 47.3C420.851 48.5 418.851 49.1 416.424 49.1C413.971 49.1 411.944 48.5 410.344 47.3C408.744 46.0733 407.944 44.5133 407.944 42.62C407.944 40.7267 408.744 39.1667 410.344 37.94C411.944 36.6867 413.971 36.06 416.424 36.06C418.824 36.06 420.824 36.6867 422.424 37.94C424.024 39.1933 424.824 40.7533 424.824 42.62ZM411.144 29.74V26.18H421.744V29.74H411.144ZM434.024 25.02V36.54H438.984V40.42H434.024V51.5H429.344V25.02H434.024ZM434.864 59.82H410.504V50.42H415.224V56.1H434.864V59.82ZM412.584 42.62C412.584 43.3933 412.958 44.0467 413.704 44.58C414.451 45.0867 415.358 45.34 416.424 45.34C417.464 45.34 418.358 45.0867 419.104 44.58C419.878 44.0467 420.264 43.3933 420.264 42.62C420.264 41.7933 419.878 41.1133 419.104 40.58C418.358 40.0467 417.464 39.78 416.424 39.78C415.358 39.78 414.451 40.0467 413.704 40.58C412.958 41.1133 412.584 41.7933 412.584 42.62ZM461.314 28.74C461.314 32.42 461.14 35.6067 460.794 38.3H465.634V25.02H470.194V60.66H465.634V42.22H460.074C459.034 46.5667 456.78 50.8333 453.314 55.02L449.674 52.42C454.554 47.3 456.994 40.7 456.994 32.62H453.034V28.74H461.314ZM451.474 28.74C451.474 34.2867 450.807 38.9267 449.474 42.66C448.14 46.3933 446.034 49.7933 443.154 52.86L439.674 50.22C442.1 47.9533 443.94 45.2733 445.194 42.18C446.474 39.0867 447.114 35.9 447.114 32.62H441.914V28.74H451.474ZM499.763 38.34H494.683V34.54H499.763V25.02H504.403V50.86H499.763V38.34ZM505.203 59.7H480.963V48.46H485.643V56.02H505.203V59.7ZM492.883 44.98H476.083V27.18H480.803V32.7H488.243V27.1H492.883V44.98ZM488.243 41.26V36.34H480.803V41.26H488.243ZM532.573 59.02H528.173V42.42H525.133C524.919 45.5667 524.159 48.1667 522.853 50.22C521.573 52.2467 519.759 53.26 517.413 53.26C515.679 53.26 514.213 52.6333 513.013 51.38C511.813 50.1267 510.959 48.5667 510.453 46.7C509.973 44.8333 509.733 42.74 509.733 40.42C509.733 38.1267 509.973 36.06 510.453 34.22C510.959 32.38 511.813 30.8333 513.013 29.58C514.213 28.3267 515.679 27.7 517.413 27.7C519.786 27.7 521.613 28.7267 522.893 30.78C524.173 32.8067 524.919 35.4067 525.133 38.58H528.173V25.7H532.573V59.02ZM539.693 60.66H535.293V25.02H539.693V60.66ZM520.013 46.7C520.573 45.1 520.853 43.02 520.853 40.46C520.853 37.9 520.573 35.82 520.013 34.22C519.453 32.5933 518.599 31.78 517.453 31.78C516.359 31.78 515.533 32.5933 514.973 34.22C514.413 35.82 514.133 37.9 514.133 40.46C514.133 42.9933 514.413 45.0733 514.973 46.7C515.533 48.3 516.359 49.1 517.453 49.1C518.599 49.1 519.453 48.3 520.013 46.7ZM581.89 25.02V38.58H587.01V42.46H581.89V60.66H577.21V25.02H581.89ZM574.81 50.3C572.836 50.8333 570.263 51.2467 567.09 51.54C563.943 51.8333 561.143 51.98 558.69 51.98H555.45V28.58H560.09V47.98C565.716 47.98 570.463 47.5133 574.33 46.58L574.81 50.3ZM610.499 52.74C607.539 53.1933 603.272 53.5533 597.699 53.82C594.099 53.98 591.072 54.06 588.619 54.06L588.019 50.22C591.859 50.22 594.726 50.1933 596.619 50.14V44.22C594.486 43.82 592.766 42.9 591.459 41.46C590.179 40.02 589.539 38.2467 589.539 36.14C589.539 33.6867 590.432 31.6467 592.219 30.02C594.006 28.3667 596.232 27.54 598.899 27.54C601.566 27.54 603.792 28.3533 605.579 29.98C607.392 31.6067 608.299 33.66 608.299 36.14C608.299 38.22 607.646 39.98 606.339 41.42C605.059 42.8333 603.379 43.7533 601.299 44.18V49.9C605.086 49.6867 607.992 49.4333 610.019 49.14L610.499 52.74ZM616.699 25.02V39.3H621.299V43.14H616.699V60.66H612.059V25.02H616.699ZM594.099 36.1C594.099 37.46 594.566 38.54 595.499 39.34C596.432 40.1133 597.566 40.5 598.899 40.5C600.206 40.5 601.312 40.1133 602.219 39.34C603.152 38.54 603.619 37.46 603.619 36.1C603.619 34.66 603.152 33.5267 602.219 32.7C601.312 31.8467 600.206 31.42 598.899 31.42C597.566 31.42 596.432 31.86 595.499 32.74C594.566 33.5933 594.099 34.7133 594.099 36.1ZM652.028 36.58C652.028 39.3267 650.828 41.58 648.428 43.34C646.055 45.0733 642.922 45.94 639.028 45.94C635.162 45.94 632.028 45.0733 629.628 43.34C627.255 41.58 626.068 39.3267 626.068 36.58C626.068 33.8067 627.255 31.54 629.628 29.78C632.028 27.9933 635.162 27.1 639.028 27.1C642.922 27.1 646.055 27.9933 648.428 29.78C650.828 31.54 652.028 33.8067 652.028 36.58ZM655.108 56.22H622.908V52.46H630.108V46.54L634.788 46.74V52.46H643.148V46.74L647.828 46.54V52.46H655.108V56.22ZM644.948 40.58C646.468 39.54 647.228 38.2067 647.228 36.58C647.228 34.9533 646.468 33.62 644.948 32.58C643.455 31.54 641.482 31.02 639.028 31.02C636.575 31.02 634.602 31.54 633.108 32.58C631.615 33.62 630.868 34.9533 630.868 36.58C630.868 38.2067 631.615 39.54 633.108 40.58C634.602 41.5933 636.575 42.1 639.028 42.1C641.482 42.1 643.455 41.5933 644.948 40.58ZM658.718 56.5V51.82H663.598V56.5H658.718Z" fill="white"/>
<path d="M1123 20.6473C1123 9.79342 1114.2 0.994629 1103.35 0.994629V0.994629V29.4392H1123V20.6473Z" fill="#4B6786" stroke="#4B6786" stroke-width="0.805851"/>
<rect width="19.6526" height="23.1214" transform="matrix(-1 0 0 1 1123 29.4393)" fill="#4B6786" stroke="#4B6786" stroke-width="0.805851"/>
<path d="M1123 61.3526C1123 72.2065 1114.2 81.0052 1103.35 81.0052V81.0052V52.5607H1123V61.3526Z" fill="#4B6786" stroke="#4B6786" stroke-width="0.805851"/>
</svg>
