<svg width="1101" height="107" viewBox="0 0 1101 107" fill="none" xmlns="http://www.w3.org/2000/svg">
<path d="M1 20.6526C1 9.79879 9.79878 1 20.6526 1V1V29.4446H1V20.6526Z" fill="#365B40" stroke="#365B40" stroke-width="0.805851"/>
<rect x="1" y="29.4446" width="19.6526" height="23.1214" fill="#365B40" stroke="#365B40" stroke-width="0.805851"/>
<path d="M1 61.3581C1 72.2119 9.79878 81.0107 20.6526 81.0107V81.0107V52.5661H1V61.3581Z" fill="#365B40" stroke="#365B40" stroke-width="0.805851"/>
<rect x="20.6528" y="1" width="1050.75" height="80.0106" fill="#365B40"/>
<rect x="20.6528" y="1" width="1050.75" height="80.0106" stroke="#365B40" stroke-width="0.805851"/>
<path d="M49.6928 25.0254V38.7454H54.8128V42.5854H49.6928V60.6654H45.0528V25.0254H49.6928ZM43.2928 48.6654C42.9728 49.0654 42.5062 49.652 41.8928 50.4254C41.3062 51.1987 40.8528 51.772 40.5328 52.1454C38.9062 51.1054 37.2662 49.6387 35.6128 47.7454C33.9595 45.852 32.8528 43.9987 32.2928 42.1854C31.7062 44.1854 30.6128 46.1987 29.0128 48.2254C27.4128 50.2254 25.6928 51.772 23.8528 52.8654C22.5462 51.2654 21.5862 50.132 20.9728 49.4654C26.8662 45.6787 29.8128 40.1587 29.8128 32.9054V28.0254H34.6528V32.6654C34.6528 36.132 35.3995 39.2254 36.8928 41.9454C38.4128 44.6654 40.5462 46.9054 43.2928 48.6654ZM59.9022 32.7054C59.9022 30.6787 60.9955 29.0254 63.1822 27.7454C65.3955 26.4654 68.4489 25.8254 72.3422 25.8254C76.2622 25.8254 79.3155 26.4654 81.5022 27.7454C83.7155 29.0254 84.8222 30.6787 84.8222 32.7054C84.8222 34.9987 83.4755 36.772 80.7822 38.0254V42.2254H88.4622V45.9454H56.2622V42.2254H63.7822V37.9054C61.1955 36.6254 59.9022 34.892 59.9022 32.7054ZM84.7822 54.0254C84.7822 56.1054 83.6889 57.732 81.5022 58.9054C79.3422 60.1054 76.3022 60.7054 72.3822 60.7054C68.4622 60.7054 65.4089 60.1054 63.2222 58.9054C61.0622 57.732 59.9822 56.1054 59.9822 54.0254C59.9822 51.9987 61.0622 50.3987 63.2222 49.2254C65.4089 48.0254 68.4489 47.4254 72.3422 47.4254C76.2622 47.4254 79.3155 48.0254 81.5022 49.2254C83.6889 50.3987 84.7822 51.9987 84.7822 54.0254ZM64.7422 32.7054C64.7422 33.6654 65.4222 34.452 66.7822 35.0654C68.1422 35.652 69.9955 35.9454 72.3422 35.9454C74.6622 35.9454 76.5155 35.652 77.9022 35.0654C79.3155 34.452 80.0222 33.6654 80.0222 32.7054C80.0222 31.7187 79.3422 30.9187 77.9822 30.3054C76.6222 29.692 74.7422 29.3854 72.3422 29.3854C69.9689 29.3854 68.1022 29.692 66.7422 30.3054C65.4089 30.9187 64.7422 31.7187 64.7422 32.7054ZM77.9022 56.2254C79.2889 55.692 79.9822 54.972 79.9822 54.0654C79.9822 53.1587 79.2889 52.452 77.9022 51.9454C76.5422 51.412 74.6889 51.1454 72.3422 51.1454C70.0222 51.1454 68.1822 51.412 66.8222 51.9454C65.4622 52.452 64.7822 53.1587 64.7822 54.0654C64.7822 54.972 65.4622 55.692 66.8222 56.2254C68.1822 56.732 70.0222 56.9854 72.3422 56.9854C74.6889 56.9854 76.5422 56.732 77.9022 56.2254ZM72.3822 39.5454C71.1822 39.5454 69.8755 39.452 68.4622 39.2654V42.2254H76.1022V39.3054C74.9289 39.4654 73.6889 39.5454 72.3822 39.5454ZM112.192 48.9854L109.592 52.3854C107.912 51.5587 106.192 50.1587 104.432 48.1854C102.672 46.212 101.538 44.3854 101.032 42.7054C100.578 44.5987 99.5249 46.572 97.8716 48.6254C96.2449 50.652 94.4182 52.1587 92.3916 53.1454L89.5116 49.6654C95.5382 46.3587 98.5516 40.9587 98.5516 33.4654V32.5054H91.3516V28.6654H110.352V32.5054H103.392V33.4254C103.392 40.572 106.325 45.7587 112.192 48.9854ZM118.552 25.0254V38.7454H123.632V42.6254H118.552V60.6654H113.872V25.0254H118.552ZM158.081 42.5854H152.921V60.6654H148.281V25.0254H152.921V38.7054H158.081V42.5854ZM143.561 28.6654C143.214 40.132 137.894 48.652 127.601 54.2254L124.761 50.7054C128.574 48.9454 131.734 46.3854 134.241 43.0254C136.748 39.6654 138.161 36.172 138.481 32.5454H126.921V28.6654H143.561ZM171.398 31.2654V27.5454H190.198V31.2654H183.358C183.518 33.692 184.345 35.7587 185.838 37.4654C187.358 39.172 189.198 40.372 191.358 41.0654L188.758 44.7454C187.291 44.1854 185.811 43.252 184.318 41.9454C182.851 40.6387 181.745 39.212 180.998 37.6654C180.518 39.3454 179.465 40.9454 177.838 42.4654C176.238 43.9854 174.531 45.052 172.718 45.6654L169.958 42.0254C172.545 41.092 174.598 39.7054 176.118 37.8654C177.638 35.9987 178.451 33.7987 178.558 31.2654H171.398ZM175.158 47.5454H199.318V60.7054H194.598V51.2254H175.158V47.5454ZM199.278 45.7854H194.598V25.0654H199.278V45.7854ZM236.968 39.5854H232.448V51.5054H227.808V25.0254H232.448V35.7054H236.968V39.5854ZM233.368 59.7054H209.008V49.2254H213.728V55.9854H233.368V59.7054ZM226.168 45.7054C221.634 46.212 217.941 46.5054 215.088 46.5854C208.901 46.8254 205.208 46.9454 204.008 46.9454L203.408 43.1454C204.874 43.1454 207.154 43.1187 210.248 43.0654V35.9054H214.888V42.9454C219.421 42.8387 223.061 42.572 225.808 42.1454L226.168 45.7054ZM223.808 27.5454C223.808 33.5454 223.474 37.772 222.808 40.2254L218.368 39.5854C218.848 37.772 219.088 34.9987 219.088 31.2654H205.608V27.5454H223.808ZM239.857 31.1054V27.2654H258.657V31.1054H251.817C251.924 33.612 252.724 35.7454 254.217 37.5054C255.737 39.2654 257.577 40.5054 259.737 41.2254L257.177 44.8654C255.737 44.3587 254.27 43.452 252.777 42.1454C251.284 40.8387 250.177 39.412 249.457 37.8654C248.924 39.5454 247.857 41.1454 246.257 42.6654C244.657 44.1854 242.964 45.252 241.177 45.8654L238.417 42.1854C241.03 41.252 243.097 39.8254 244.617 37.9054C246.164 35.9854 246.964 33.7187 247.017 31.1054H239.857ZM243.977 47.7454H268.137V60.7054H263.417V51.4254H243.977V47.7454ZM268.097 45.9054H263.417V37.4654H258.137V33.7054H263.417V25.0254H268.097V45.9054ZM305.226 55.9854H273.026V52.3054H305.226V55.9854ZM298.626 30.1054C301.026 31.812 302.226 34.0387 302.226 36.7854C302.226 39.532 301.026 41.7587 298.626 43.4654C296.253 45.172 293.093 46.0254 289.146 46.0254C285.226 46.0254 282.066 45.172 279.666 43.4654C277.266 41.7587 276.066 39.532 276.066 36.7854C276.066 34.0387 277.266 31.812 279.666 30.1054C282.066 28.3987 285.226 27.5454 289.146 27.5454C293.093 27.5454 296.253 28.3987 298.626 30.1054ZM295.146 40.8254C296.666 39.812 297.426 38.4787 297.426 36.8254C297.426 35.172 296.666 33.852 295.146 32.8654C293.653 31.852 291.653 31.3454 289.146 31.3454C286.666 31.3454 284.666 31.852 283.146 32.8654C281.653 33.852 280.906 35.172 280.906 36.8254C280.906 38.4787 281.653 39.812 283.146 40.8254C284.666 41.812 286.666 42.3054 289.146 42.3054C291.653 42.3054 293.653 41.812 295.146 40.8254ZM336.596 46.9454H325.796V52.5054H339.636V56.2254H307.436V52.5054H321.116V46.9454H311.556V35.1454H330.916V31.0254H311.356V27.3054H335.556V38.8654H316.196V43.1854H336.596V46.9454ZM381.593 60.6654H376.953V25.0254H381.593V60.6654ZM355.593 49.4254C353.966 47.1054 353.153 44.0387 353.153 40.2254C353.153 36.412 353.966 33.332 355.593 30.9854C357.246 28.6387 359.499 27.4654 362.353 27.4654C365.233 27.4654 367.486 28.6387 369.113 30.9854C370.766 33.332 371.593 36.412 371.593 40.2254C371.593 44.012 370.766 47.0787 369.113 49.4254C367.486 51.7454 365.233 52.9054 362.353 52.9054C359.499 52.9054 357.246 51.7454 355.593 49.4254ZM367.113 40.2254C367.113 37.452 366.673 35.2654 365.793 33.6654C364.913 32.0387 363.766 31.2254 362.353 31.2254C360.993 31.2254 359.873 32.0387 358.993 33.6654C358.139 35.2654 357.713 37.452 357.713 40.2254C357.713 42.972 358.139 45.1454 358.993 46.7454C359.873 48.3454 360.993 49.1454 362.353 49.1454C363.766 49.1454 364.913 48.3454 365.793 46.7454C366.673 45.1454 367.113 42.972 367.113 40.2254ZM390.202 32.7054C390.202 30.6787 391.296 29.0254 393.482 27.7454C395.696 26.4654 398.749 25.8254 402.642 25.8254C406.562 25.8254 409.616 26.4654 411.802 27.7454C414.016 29.0254 415.122 30.6787 415.122 32.7054C415.122 34.9987 413.776 36.772 411.082 38.0254V42.2254H418.762V45.9454H386.562V42.2254H394.082V37.9054C391.496 36.6254 390.202 34.892 390.202 32.7054ZM415.082 54.0254C415.082 56.1054 413.989 57.732 411.802 58.9054C409.642 60.1054 406.602 60.7054 402.682 60.7054C398.762 60.7054 395.709 60.1054 393.522 58.9054C391.362 57.732 390.282 56.1054 390.282 54.0254C390.282 51.9987 391.362 50.3987 393.522 49.2254C395.709 48.0254 398.749 47.4254 402.642 47.4254C406.562 47.4254 409.616 48.0254 411.802 49.2254C413.989 50.3987 415.082 51.9987 415.082 54.0254ZM395.042 32.7054C395.042 33.6654 395.722 34.452 397.082 35.0654C398.442 35.652 400.296 35.9454 402.642 35.9454C404.962 35.9454 406.816 35.652 408.202 35.0654C409.616 34.452 410.322 33.6654 410.322 32.7054C410.322 31.7187 409.642 30.9187 408.282 30.3054C406.922 29.692 405.042 29.3854 402.642 29.3854C400.269 29.3854 398.402 29.692 397.042 30.3054C395.709 30.9187 395.042 31.7187 395.042 32.7054ZM408.202 56.2254C409.589 55.692 410.282 54.972 410.282 54.0654C410.282 53.1587 409.589 52.452 408.202 51.9454C406.842 51.412 404.989 51.1454 402.642 51.1454C400.322 51.1454 398.482 51.412 397.122 51.9454C395.762 52.452 395.082 53.1587 395.082 54.0654C395.082 54.972 395.762 55.692 397.122 56.2254C398.482 56.732 400.322 56.9854 402.642 56.9854C404.989 56.9854 406.842 56.732 408.202 56.2254ZM402.682 39.5454C401.482 39.5454 400.176 39.452 398.762 39.2654V42.2254H406.402V39.3054C405.229 39.4654 403.989 39.5454 402.682 39.5454ZM441.492 37.2254H420.812V33.5054H441.492V37.2254ZM425.812 31.0254V27.3454H436.812V31.0254H425.812ZM448.852 25.0254V39.4654H453.812V43.3454H448.852V60.6654H444.132V25.0254H448.852ZM422.572 46.1454C422.572 43.932 423.372 42.1054 424.972 40.6654C426.572 39.1987 428.638 38.4654 431.172 38.4654C433.732 38.4654 435.798 39.1854 437.372 40.6254C438.972 42.0654 439.772 43.9054 439.772 46.1454C439.772 48.3587 438.972 50.1987 437.372 51.6654C435.772 53.1054 433.705 53.8254 431.172 53.8254C428.612 53.8254 426.532 53.1187 424.932 51.7054C423.358 50.2654 422.572 48.412 422.572 46.1454ZM427.132 46.1454C427.132 47.292 427.505 48.2254 428.252 48.9454C429.025 49.6654 429.998 50.0254 431.172 50.0254C432.452 50.0254 433.438 49.6787 434.132 48.9854C434.852 48.2654 435.212 47.3187 435.212 46.1454C435.212 44.972 434.825 44.0254 434.052 43.3054C433.305 42.5854 432.345 42.2254 431.172 42.2254C429.998 42.2254 429.025 42.5854 428.252 43.3054C427.505 44.0254 427.132 44.972 427.132 46.1454ZM484.861 60.6654H480.181V25.0254H484.861V60.6654ZM473.901 28.7454C473.608 40.1054 468.301 48.5987 457.981 54.2254L455.101 50.7054C458.941 48.9454 462.114 46.3987 464.621 43.0654C467.128 39.7054 468.541 36.2254 468.861 32.6254H457.261V28.7454H473.901ZM529.018 60.5054H504.098V51.3854H523.418V49.5454H503.978V45.8654H513.778V43.4654H500.098V39.9054H532.298V43.4654H518.458V45.8654H528.058V54.6654H508.738V56.6654H529.018V60.5054ZM528.178 37.6654H504.218V25.5854H508.898V28.2254H523.538V25.5454H528.178V37.6654ZM523.538 34.0654V31.7854H508.898V34.0654H523.538ZM554.507 42.3854L554.907 45.9454C550.134 46.7987 543.414 47.2254 534.747 47.2254L534.107 43.3454H538.427L537.587 33.5454C538.094 33.4654 538.854 33.372 539.867 33.2654C540.907 33.1587 541.681 33.0787 542.187 33.0254C542.267 35.1054 542.414 38.5187 542.627 43.2654L546.107 43.1454C546.214 39.7854 546.374 36.4254 546.587 33.0654L551.067 33.5054L550.147 42.9054C552.361 42.692 553.814 42.5187 554.507 42.3854ZM554.867 34.7054V31.1854H559.307V25.0254H563.987V50.8654H559.307V41.9454H554.867V38.3454H559.307V34.7054H554.867ZM564.747 59.7054H540.147V49.2654H544.867V55.9854H564.747V59.7054ZM553.507 31.5854H535.147V27.8654H553.507V31.5854ZM599.237 60.6654H594.797V43.1854H591.837V59.0254H587.477V25.6654H591.837V39.4254H594.797V25.0254H599.237V60.6654ZM583.077 40.6254C584.517 41.9587 585.237 43.7454 585.237 45.9854C585.237 48.2254 584.517 50.0254 583.077 51.3854C581.637 52.7187 579.757 53.3854 577.437 53.3854C575.144 53.3854 573.264 52.692 571.797 51.3054C570.357 49.892 569.637 48.1187 569.637 45.9854C569.637 43.7454 570.357 41.9587 571.797 40.6254C573.264 39.2654 575.144 38.5854 577.437 38.5854C579.757 38.5854 581.637 39.2654 583.077 40.6254ZM568.877 37.2654V33.5454H585.877V37.2654H568.877ZM581.037 45.9854C581.037 44.892 580.69 43.9987 579.997 43.3054C579.33 42.612 578.477 42.2654 577.437 42.2654C576.397 42.2654 575.544 42.612 574.877 43.3054C574.21 43.9987 573.877 44.892 573.877 45.9854C573.877 47.1054 574.21 48.012 574.877 48.7054C575.544 49.372 576.397 49.7054 577.437 49.7054C578.477 49.7054 579.33 49.3587 579.997 48.6654C580.69 47.9454 581.037 47.052 581.037 45.9854ZM572.757 31.5054V27.7854H582.357V31.5054H572.757ZM632.446 36.5854C632.446 39.332 631.246 41.5854 628.846 43.3454C626.473 45.0787 623.34 45.9454 619.446 45.9454C615.58 45.9454 612.446 45.0787 610.046 43.3454C607.673 41.5854 606.486 39.332 606.486 36.5854C606.486 33.812 607.673 31.5454 610.046 29.7854C612.446 27.9987 615.58 27.1054 619.446 27.1054C623.34 27.1054 626.473 27.9987 628.846 29.7854C631.246 31.5454 632.446 33.812 632.446 36.5854ZM635.526 56.2254H603.326V52.4654H610.526V46.5454L615.206 46.7454V52.4654H623.566V46.7454L628.246 46.5454V52.4654H635.526V56.2254ZM625.366 40.5854C626.886 39.5454 627.646 38.212 627.646 36.5854C627.646 34.9587 626.886 33.6254 625.366 32.5854C623.873 31.5454 621.9 31.0254 619.446 31.0254C616.993 31.0254 615.02 31.5454 613.526 32.5854C612.033 33.6254 611.286 34.9587 611.286 36.5854C611.286 38.212 612.033 39.5454 613.526 40.5854C615.02 41.5987 616.993 42.1054 619.446 42.1054C621.9 42.1054 623.873 41.5987 625.366 40.5854ZM639.136 56.5054V51.8254H644.016V56.5054H639.136Z" fill="white"/>
<path d="M1091.05 20.6526C1091.05 9.79879 1082.25 1 1071.4 1V1V29.4446H1091.05V20.6526Z" fill="#365B40" stroke="#365B40" stroke-width="0.805851"/>
<rect width="19.6526" height="23.1214" transform="matrix(-1 0 0 1 1091.05 29.4446)" fill="#365B40" stroke="#365B40" stroke-width="0.805851"/>
<path fill-rule="evenodd" clip-rule="evenodd" d="M1090.7 65.1045C1090.93 63.8917 1091.05 62.6391 1091.05 61.3579V52.5659H1071.4V81.0105C1076.16 81.0105 1080.52 79.3189 1083.92 76.5043C1087.32 78.7642 1092.75 80.9125 1099.33 79.7176C1097.52 78.9418 1090.53 74.2872 1090.79 64.9781C1090.76 65.0212 1090.73 65.0633 1090.7 65.1045Z" fill="#365B40"/>
<path d="M1090.7 65.1045L1091.01 65.3612L1090.3 65.0282L1090.7 65.1045ZM1091.05 52.5659V52.163H1091.45V52.5659H1091.05ZM1071.4 52.5659H1071V52.163H1071.4V52.5659ZM1071.4 81.0105V81.4134H1071V81.0105H1071.4ZM1083.92 76.5043L1083.67 76.1939L1083.9 76.0028L1084.15 76.1689L1083.92 76.5043ZM1099.33 79.7176L1099.49 79.3472L1100.72 79.8745L1099.4 80.114L1099.33 79.7176ZM1090.79 64.9781L1090.47 64.7411L1091.23 63.6896L1091.2 64.9893L1090.79 64.9781ZM1091.45 61.3579C1091.45 62.6648 1091.33 63.943 1091.09 65.1809L1090.3 65.0282C1090.53 63.8403 1090.65 62.6133 1090.65 61.3579H1091.45ZM1091.45 52.5659V61.3579H1090.65V52.5659H1091.45ZM1071.4 52.163H1091.05V52.9688H1071.4V52.163ZM1071 81.0105V52.5659H1071.8V81.0105H1071ZM1084.18 76.8146C1080.71 79.6869 1076.26 81.4134 1071.4 81.4134V80.6076C1076.06 80.6076 1080.33 78.951 1083.67 76.1939L1084.18 76.8146ZM1099.4 80.114C1092.7 81.3322 1087.15 79.1412 1083.7 76.8396L1084.15 76.1689C1087.48 78.3873 1092.81 80.4927 1099.25 79.3211L1099.4 80.114ZM1091.2 64.9893C1091.07 69.5326 1092.71 72.9329 1094.6 75.2961C1096.5 77.6693 1098.64 78.9858 1099.49 79.3472L1099.17 80.0879C1098.2 79.6736 1095.95 78.2749 1093.97 75.7996C1091.98 73.3143 1090.26 69.7327 1090.39 64.9669L1091.2 64.9893ZM1090.38 64.8479C1090.41 64.813 1090.44 64.7774 1090.47 64.7411L1091.12 65.2151C1091.08 65.265 1091.05 65.3137 1091.01 65.3612L1090.38 64.8479Z" fill="#365B40"/>
</svg>
