<svg width="40" height="40" viewBox="0 0 40 40" fill="none" xmlns="http://www.w3.org/2000/svg">
<path d="M18.3071 40C14.8623 40 12.0571 37.1967 12.0571 33.75C12.0571 33.06 12.6171 32.5 13.3071 32.5C13.9971 32.5 14.5571 33.06 14.5571 33.75C14.5571 35.8185 16.2405 37.5 18.3071 37.5C20.3738 37.5 22.0571 35.8185 22.0571 33.75C22.0571 33.06 22.6171 32.5 23.3071 32.5C23.9971 32.5 24.5571 33.06 24.5571 33.75C24.5571 37.1967 21.7523 40 18.3071 40Z" fill="#FE5C73"/>
<path d="M32.0572 35H4.55719C2.94891 35 1.64062 33.6917 1.64062 32.0834C1.64062 31.2299 2.01233 30.4218 2.66052 29.8666C2.70233 29.83 2.74719 29.7968 2.79388 29.7665C5.24048 27.6315 6.64062 24.5599 6.64062 21.3165V16.6666C6.64062 10.2335 11.8756 5 18.3072 5C18.5739 5 18.8623 5.00488 19.129 5.05005C19.8105 5.16327 20.2707 5.80841 20.1572 6.48834C20.0439 7.16827 19.3872 7.62848 18.7189 7.51495C18.5855 7.49329 18.439 7.5 18.3072 7.5C13.2541 7.5 9.14062 11.6116 9.14062 16.6666V21.3165C9.14062 25.3433 7.37549 29.1534 4.30237 31.7682C4.27734 31.7883 4.25568 31.8066 4.22882 31.825C4.18396 31.8817 4.14062 31.9684 4.14062 32.0834C4.14062 32.3099 4.33075 32.5 4.55719 32.5H32.0572C32.2839 32.5 32.4741 32.3099 32.4741 32.0834C32.4741 31.9666 32.4307 31.8817 32.384 31.825C32.359 31.8066 32.3373 31.7883 32.3123 31.7682C29.2374 29.1516 27.4741 25.3433 27.4741 21.3165V19.5001C27.4741 18.8101 28.0341 18.2501 28.7241 18.2501C29.4141 18.2501 29.9741 18.8101 29.9741 19.5001V21.3165C29.9741 24.5618 31.3757 27.6349 33.8257 29.7717C33.8705 29.8016 33.9139 29.8334 33.9539 29.8685C34.6024 30.4218 34.9741 31.2299 34.9741 32.0834C34.9741 33.6917 33.6658 35 32.0572 35Z" fill="#FE5C73"/>
<path d="M29.9741 16.6666C25.379 16.6666 21.6406 12.9285 21.6406 8.33344C21.6406 3.7384 25.379 0 29.9741 0C34.5691 0 38.3072 3.7384 38.3072 8.33344C38.3072 12.9285 34.5691 16.6666 29.9741 16.6666ZM29.9741 2.5C26.7572 2.5 24.1406 5.11658 24.1406 8.33344C24.1406 11.55 26.7572 14.1666 29.9741 14.1666C33.1906 14.1666 35.8072 11.55 35.8072 8.33344C35.8072 5.11658 33.1906 2.5 29.9741 2.5Z" fill="#FE5C73"/>
</svg>
